<?xml version="1.0" encoding="UTF-8"?>
<svg id="Layer_1" data-name="Layer 1" xmlns="http://www.w3.org/2000/svg" viewBox="0 0 12000 12000">
  <defs>
    <style>
      .cls-1 {
        fill: #fff;
      }
    </style>
  </defs>
  <g id="Circle">
    <g>
      <path class="cls-1" d="M5982.6538461539,565.1354534854c-1176.9212291286,0-2267.2879607965,372.1367001136-3158.0547662587,1004.9467743357l1312.4285033303,1308.6451765698c540.7676972297-319.0464937207,1171.8740906507-501.9704354006,1845.6262629284-501.9704354006s1304.8585656987,182.9239416799,1845.6262629284,501.9704354006l1312.4285033302-1308.6451765698c-890.7668054621-632.8100742221-1981.13353713-1004.9467743357-3158.0547662587-1004.9467743357ZM10425.3786241997,2851.0489320212l-1312.4285033302,1308.6451765698c319.9688653147,539.2088306744,503.4216448004,1168.4959389299,503.4216448004,1840.305891409s-183.4527794857,1301.0970607346-503.4216448004,1840.305891409l1312.4285033302,1308.6451765698c634.6395443726-888.1989993806,1007.8521012282-1975.4225399153,1007.8521012282-3148.9510679788s-373.2125568556-2260.7520685982-1007.8521012282-3148.9510679789ZM7828.2801090823,9121.2725956092c-540.7676972298,319.0464937207-1171.8740906508,501.9704354006-1845.6262629284,501.9704354006s-1304.8585656987-182.9239416799-1845.6262629284-501.9704354006l-1312.4285033303,1308.6451765698c890.7668054621,632.8100742221,1981.1335371301,1004.9467743357,3158.0547662587,1004.9467743357s2267.2879607965-372.1367001136,3158.0547662587-1004.9467743357l-1312.4285033302-1308.6451765698ZM2852.3575714382,4159.694108591l-1312.4285033303-1308.6451765698c-634.6380042021,888.1989993806-1007.8521012281,1975.4225399154-1007.8521012281,3148.9510679789s373.214097026,2260.7520685982,1007.8521012281,3148.9510679788l1312.4285033303-1308.6451765698c-319.9688653147-539.2088306744-503.4216448004-1168.4959389299-503.4216448004-1840.305891409s183.4527794856-1301.0970607346,503.4216448004-1840.305891409Z"/>
      <path class="cls-1" d="M7417.7199596269,4889.1231369642c-93.1140832945-119.7670212891-201.1154539025-227.4585929726-321.2302648916-320.0523972552-307.6043771548-238.7815345906-694.1917739682-380.6922552139-1113.8358485814-380.6922552139-419.8966625628,0-806.4840593762,142.1625804395-1114.0884365309,380.6922552139-119.8622230396,92.8456640988-227.8635936477,200.5357000517-320.9776769421,320.0523972552-239.2192701802,306.7176485682-381.792846285,692.1906330994-381.792846285,1110.8768630359,0,418.4343701202,142.3209881553,803.9073546514,381.792846285,1110.6250032196,92.861495345,119.7685570197,200.8644061235,227.4585929726,320.9776769421,320.3042570714,307.6043771547,238.5296747744,694.1917739681,380.6922552139,1114.0884365309,380.6922552139s806.4840593761-142.1625804395,1114.0884365309-380.6922552139c119.8622230396-92.8456640988,227.8635936477-200.5357000517,320.9776769421-320.0523972552,239.2192701803-306.7176485682,381.792846285-692.1906330994,381.792846285-1110.8768630358s-142.5735761048-804.1592144677-381.792846285-1110.8768630359ZM6444.1859357755,6780.2555678809c-135.2546862522,79.7612394976-292.9681376201,125.5551898716-461.5320896216,125.5551898716s-326.2774033695-45.793950374-461.5320896216-125.5551898716c-132.22825137-77.7494324285-243.0050090813-188.2068548992-321.231805062-320.0539329858-79.7392433366-134.86478869-125.6655851954-292.1236007998-125.6655851954-460.2016348951s45.9263418588-325.3368462051,125.9181731448-460.2016348951c77.9742080313-131.8470780865,188.7509657426-242.3045005572,320.9792171126-320.0539329858,135.2546862522-79.7612394975,292.9681376201-125.5551898716,461.5320896216-125.5551898716s326.2774033694,45.7939503741,461.5320896216,125.3033300553c132.22825137,78.0012922449,243.0050090813,188.4587147155,320.9792171125,320.3057928021,79.9918312861,134.86478869,125.9181731448,292.1236007998,125.9181731448,460.2016348951s-45.9263418587,325.3368462051-125.9181731448,460.2016348951c-77.9742080313,131.8470780865-188.7509657425,242.3045005572-320.9792171125,320.0539329858Z"/>
      <path class="cls-1" d="M6436.8310372426,6000c0,250.1044762086-203.3872052772,452.9053788762-454.2147399395,452.9053788762s-454.2147399395-202.8009026675-454.2147399395-452.9053788762,203.3872052772-452.9053788762,454.2147399395-452.9053788762,454.2147399395,202.8009026676,454.2147399395,452.9053788762Z"/>
    </g>
    <g>
      <path class="cls-1" d="M5982.6538461539,2807.7720440792c-553.3847733392,0-1074.2180447774,140.1492376399-1528.4327847169,387.2344675145l339.3996553778,338.4197350758c359.5866691188-172.8587634126,763.0805166711-269.72957738,1189.0331293391-269.72957738s829.4464602203,96.8708139674,1189.0331293391,269.72957738l339.3996553777-338.4197350758c-454.2147399395-247.0852298746-975.0480113777-387.2344675145-1528.4327847169-387.2344675145ZM3508.949164857,4814.3944866003l-339.3981152073-338.4212708064c-247.7995596097,452.9053788762-388.3539722892,972.237248563-388.3539722892,1524.0267842062s140.5544126795,1071.1214053299,388.3539722892,1524.0267842062l339.3981152073-338.4212708064c-173.3585025299-358.5500916103-270.5093725044-760.8807907952-270.5093725044-1185.6055133998s97.1508699745-827.0554217894,270.5093725044-1185.6055133998ZM7171.686975493,8466.5737533305c-359.5866691188,172.8587634126-763.0805166711,269.72957738-1189.0331293391,269.72957738s-829.4464602203-96.8708139674-1189.0331293391-269.72957738l-339.3996553778,338.4197350758c454.2147399395,247.0852298746,975.0480113777,387.2344675145,1528.4327847169,387.2344675145s1074.2180447774-140.1492376399,1528.4327847169-387.2344675145l-339.3996553777-338.4197350758ZM8795.7566426579,4475.9732157939l-339.3981152073,338.4212708064c173.3585025299,358.5500916103,270.5093725044,760.8807907952,270.5093725044,1185.6055133998s-97.1508699745,827.0554217894-270.5093725044,1185.6055133998l339.3981152073,338.4212708064c247.7995596097-452.9053788762,388.3539722892-972.237248563,388.3539722892-1524.0267842062s-140.5544126795-1071.1214053299-388.3539722892-1524.0267842062Z"/>
      <path class="cls-1" d="M4868.5654096229,4569.070739709l652.5563469093,650.6736924101c-132.22825137,77.7494324286-243.0050090813,188.2068548992-320.9792171126,320.0539329858l-652.5548067389-650.6752281408-331.3245418473-330.3694353387,320.9776769421-320.0523972552,331.3245418473,330.3694353387Z"/>
      <path class="cls-1" d="M5521.1217565322,6780.2555678809l-652.5563469093,650.6736924102-331.3245418473,330.3694353387-321.2302648916-320.0523972551,331.5771297967-330.621295155,652.3022187894-650.4233683245c78.2267959808,131.8470780865,189.003553692,242.3045005572,321.231805062,320.0539329858Z"/>
      <path class="cls-1" d="M7749.0445014742,4558.7537016254l-331.3245418473,330.3694353387-652.5548067389,650.6752281408c-77.9742080313-131.8470780865-188.7509657425-242.3045005572-320.9792171125-320.3057928021l652.3037589598-650.4218325939,331.3245418473-330.3694353387,321.2302648916,320.0523972552Z"/>
      <path class="cls-1" d="M47.7032531727,80.1418930547C137.1460321295-9.0430499451,266.2737869886-26.3351607628,339.1740759363,41.1096511259l4320.0275229844,3996.7392152713c113.8661719432,113.5379308738,88.7316671146,322.681337765-56.1394878085,467.1348738114l-125.5847482422,125.2227261302c-140.5340830472,140.1289666116-344.0028088205,164.4407227357-454.460118784,54.3018271435L8.5631282258,370.7784909493C-59.0825810723,298.0898254943-41.7425578364,169.3298593662,47.7029319944,80.1422133071l.0003211783-.0003202525Z"/>
      <path class="cls-1" d="M11919.6264146776,82.1580398651c89.4427789567,89.1849429998,106.7848817103,217.940462351,39.1450851409,290.6306022405l-4008.293890823,4307.5742154768c-113.8661719432,113.5379308738-323.6142177864,88.4758810738-468.4853727094-55.9776549726l-125.5847482423-125.2227261302c-140.5340830472-140.1289666116-164.9161250816-343.0111547768-54.4588151181-453.1500503691L11628.1495789262,43.1307438317c72.8988102506-67.4507075729,202.0310247423-50.1606702782,291.476514573,39.026975781l.0003211783.0003202524Z"/>
      <path class="cls-1" d="M45.6812776301,11917.8419601349c-89.4427789568-89.1849429998-106.7848817103-217.940462351-39.1450851409-290.6306022405l4008.293890823-4307.5742154769c113.8661719432-113.5379308737,323.6142177863-88.4758810738,468.4853727094,55.9776549726l125.5847482422,125.2227261302c140.5340830471,140.1289666116,164.9161250816,343.0111547768,54.4588151181,453.1500503691L337.1581133815,11956.8692561683c-72.8988102506,67.4507075729-202.0310247424,50.1606702782-291.4765145731-39.0269757809l-.0003211784-.0003202525Z"/>
      <path class="cls-1" d="M11917.604439135,11919.8581069454c-89.4427789567,89.1849429998-218.5705338158,106.4770538175-291.4708227637,39.0322419287l-4320.0275229844-3996.7392152712c-113.8661719431-113.5379308737-88.7316671145-322.681337765,56.1394878086-467.1348738114l125.5847482422-125.2227261302c140.5340830471-140.1289666116,344.0028088204-164.4407227358,454.460118784-54.3018271435l4014.4541158604,4313.729802533c67.645709298,72.6886654549,50.3056860621,201.448631583-39.1398037686,290.6362776421l-.0003211784.0003202525Z"/>
      <path class="cls-1" d="M7749.0445014742,7441.2462983746l-320.9776769421,320.0523972551-331.3245418473-330.3694353387-652.5563469093-650.6736924102c132.22825137-77.7494324285,243.0050090813-188.2068548992,320.9792171125-320.0539329858l652.5548067389,650.6752281408,331.3245418473,330.3694353387Z"/>
    </g>
  </g>
</svg>